<?xml version="1.0" encoding="utf-8"?>
<!-- Generator: Adobe Illustrator 28.0.0, SVG Export Plug-In . SVG Version: 6.00 Build 0)  -->
<svg version="1.1" id="Calque_1" xmlns="http://www.w3.org/2000/svg" xmlns:xlink="http://www.w3.org/1999/xlink" x="0px" y="0px"
	 viewBox="0 0 800 658" style="enable-background:new 0 0 800 658;" xml:space="preserve">
<style type="text/css">
	.st0{fill:#163844;}
	.st1{fill:#F4F4F4;}
	.st2{fill:#FBFBFB;}
	.st3{fill:#576D78;}
	.st4{fill:#C9D1D1;}
	.st5{fill:#E4E7E7;}
	.st6{opacity:0.1;fill:#FFFFFF;enable-background:new    ;}
</style>
<g id="mac_screen" transform="translate(-61.168 -435.413)">
	<path id="Path_1" class="st0" d="M844.8,438.4H77.5c-9,0-16.3,7.3-16.3,16.3v469.1h800V454.7C861.1,445.7,853.8,438.5,844.8,438.4z
		 M836.7,893.2h-751V471.8h751L836.7,893.2z"/>
	<path id="Path_2" class="st1" d="M61.2,923.8V977c0,9,7.3,16.3,16.3,16.3h767.4c9,0,16.3-7.3,16.4-16.3v-53.1H61.2z"/>
	<path id="Path_3" class="st2" d="M465.6,455c0,2.5-1.9,4.5-4.4,4.5c-2.5,0-4.5-1.9-4.5-4.4c0-2.5,1.9-4.5,4.4-4.5c0,0,0,0,0.1,0
		C463.6,450.6,465.6,452.6,465.6,455z"/>
	<rect id="Rectangle_1" x="85.7" y="471.8" class="st3" width="751" height="421.5"/>
	<path id="Path_4" class="st4" d="M589.8,1075.9H332.5c-4.2-0.2-7.9,3-8.2,7.2v7.2H598v-7.2C597.7,1078.8,594.1,1075.6,589.8,1075.9
		z"/>
	<path id="Path_5" class="st5" d="M376.2,993.3l-19,82.6h208l-19.1-82.6H376.2z"/>
	<path id="Path_6" class="st6" d="M728.5,438.4h-651c-9,0-16.3,7.3-16.3,16.3v469.1H243L728.5,438.4z"/>
</g>
</svg>
